<?xml version="1.0" standalone="no"?>
<!DOCTYPE svg PUBLIC "-//W3C//DTD SVG 20010904//EN"
 "http://www.w3.org/TR/2001/REC-SVG-20010904/DTD/svg10.dtd">
<svg version="1.0" xmlns="http://www.w3.org/2000/svg"
 width="1402.000000pt" height="800.000000pt" viewBox="200 250 1000.000000 600.000000"
 preserveAspectRatio="xMidYMid meet">

<g transform="translate(0.000000,1122.000000) scale(0.100000,-0.100000)"
fill="#000000" stroke="none">
<path d="M6860 8020 l0 -180 180 0 180 0 0 180 0 180 -180 0 -180 0 0 -180z"/>
<path d="M6000 7940 l0 -180 183 2 182 3 0 175 0 175 -182 3 -183 2 0 -180z"/>
<path d="M7730 7910 l0 -180 180 0 180 0 0 180 0 180 -180 0 -180 0 0 -180z"/>
<path d="M5230 7680 l0 -180 180 0 180 0 0 180 0 180 -180 0 -180 0 0 -180z"/>
<path d="M8565 7708 c-3 -57 -5 -137 -3 -178 l3 -75 178 -3 177 -2 0 180 0
180 -174 0 -174 0 -7 -102z"/>
<path d="M4490 7295 l0 -185 178 2 177 3 3 183 2 182 -180 0 -180 0 0 -185z"/>
<path d="M9260 7250 l0 -180 180 0 180 0 0 180 0 180 -180 0 -180 0 0 -180z"/>
<path d="M3847 6954 c-4 -4 -7 -88 -7 -186 l0 -178 180 0 180 0 -2 183 -3 182
-171 3 c-93 1 -173 -1 -177 -4z"/>
<path d="M9870 6710 l0 -180 180 0 180 0 0 180 0 180 -180 0 -180 0 0 -180z"/>
<path d="M6860 6455 l0 -185 180 0 180 0 0 185 0 185 -180 0 -180 0 0 -185z"/>
<path d="M5985 6497 c-3 -7 -4 -89 -3 -182 l3 -170 180 0 180 0 0 180 0 180
-178 3 c-139 2 -179 0 -182 -11z"/>
<path d="M7730 6305 l0 -185 180 0 180 0 0 185 0 185 -180 0 -180 0 0 -185z"/>
<path d="M3347 6314 c-4 -4 -7 -88 -7 -186 l0 -178 183 2 182 3 0 180 0 180
-176 3 c-96 1 -178 -1 -182 -4z"/>
<path d="M10320 6055 l0 -185 180 0 180 0 0 185 0 185 -180 0 -180 0 0 -185z"/>
<path d="M5217 6033 c-4 -3 -7 -87 -7 -185 l0 -178 180 0 180 0 0 185 0 185
-173 0 c-96 0 -177 -3 -180 -7z"/>
<path d="M8502 5828 l3 -183 25 1 c14 0 94 1 178 2 l152 2 0 180 0 180 -180 0
-180 0 2 -182z"/>
<path d="M2990 5400 l0 -179 180 -3 180 -3 0 183 0 182 -180 0 -180 0 0 -180z"/>
<path d="M10620 5340 l0 -180 185 0 185 0 0 180 0 180 -185 0 -185 0 0 -180z"/>
<path d="M4747 5414 c-4 -4 -7 -88 -7 -186 l0 -178 185 0 185 0 -2 183 -3 182
-176 3 c-96 1 -178 -1 -182 -4z"/>
<path d="M8948 5209 c-2 -99 -1 -183 1 -185 2 -2 85 -4 183 -4 l178 0 0 185 0
185 -180 0 -179 0 -3 -181z"/>
<path d="M3082 4490 c-132 -39 -239 -130 -297 -252 -62 -132 -66 -265 -13
-401 126 -319 580 -401 821 -148 258 270 132 712 -230 806 -77 20 -203 18
-281 -5z m282 -131 c77 -28 148 -96 188 -177 30 -60 33 -75 33 -157 0 -77 -4
-98 -27 -147 -35 -76 -98 -142 -167 -175 -50 -25 -67 -28 -161 -28 -101 0
-108 1 -168 34 -173 94 -234 289 -148 476 32 70 93 130 169 166 53 25 74 29
144 29 58 0 98 -6 137 -21z"/>
<path d="M6663 4495 c-284 -80 -436 -387 -327 -660 31 -77 115 -174 192 -223
136 -87 357 -96 502 -22 l40 20 0 75 c0 41 -2 75 -4 75 -3 0 -24 -13 -48 -29
-66 -44 -133 -64 -218 -64 -221 0 -378 173 -356 393 17 166 134 292 297 320
101 18 161 3 322 -78 4 -2 7 28 7 66 0 79 -4 84 -95 116 -69 25 -243 31 -312
11z"/>
<path d="M4065 4192 c-22 -11 -51 -32 -65 -47 l-25 -27 -5 39 c-4 33 -9 38
-34 41 -16 2 -44 1 -63 -3 l-33 -6 0 -444 0 -445 65 0 65 0 0 165 0 164 25
-25 c41 -41 103 -64 176 -64 96 0 154 23 221 90 48 48 60 68 78 129 53 172
-13 350 -154 424 -59 30 -196 35 -251 9z m186 -118 c67 -34 117 -145 104 -227
-17 -104 -68 -165 -156 -187 -59 -15 -116 0 -163 40 -50 45 -68 91 -68 175 0
114 51 195 137 216 38 10 112 1 146 -17z"/>
<path d="M4777 4196 c-137 -49 -214 -180 -205 -350 7 -129 64 -223 166 -273
51 -25 68 -28 157 -28 82 0 109 4 147 22 45 20 138 103 138 122 0 5 -21 23
-47 40 l-48 30 -23 -30 c-47 -59 -144 -90 -220 -70 -76 21 -115 68 -136 163
l-6 28 247 2 248 3 -3 65 c-6 120 -66 214 -167 261 -50 24 -73 29 -135 29 -41
-1 -92 -7 -113 -14z m211 -125 c32 -22 52 -53 66 -98 l7 -23 -176 0 -176 0 6
23 c26 83 95 130 186 125 37 -3 66 -11 87 -27z"/>
<path d="M5520 4191 c-19 -11 -46 -31 -60 -46 l-25 -27 -5 39 c-4 33 -9 38
-34 41 -16 2 -44 1 -63 -3 l-33 -6 0 -314 0 -314 33 -6 c18 -4 46 -5 62 -2
l30 4 5 214 c6 231 11 255 66 298 61 48 172 33 208 -29 19 -32 21 -55 24 -257
l3 -223 65 0 64 0 0 220 c0 121 -5 242 -11 270 -13 62 -57 115 -114 141 -55
25 -167 25 -215 0z"/>
<path d="M7362 4192 c-66 -24 -118 -64 -159 -126 -43 -62 -57 -115 -57 -202 1
-124 71 -237 182 -291 51 -25 68 -28 157 -28 81 0 109 4 146 21 95 44 159 121
185 227 41 157 -32 318 -176 386 -74 34 -200 40 -278 13z m184 -107 c89 -26
147 -110 148 -210 0 -73 -29 -132 -87 -179 -33 -27 -48 -31 -110 -34 -68 -4
-75 -2 -122 30 -72 48 -90 85 -90 185 0 74 3 85 30 124 32 46 77 77 128 89 47
11 49 11 103 -5z"/>
<path d="M8160 4195 c-19 -9 -47 -28 -62 -42 l-28 -27 0 31 0 31 -66 4 c-36 1
-68 1 -70 -1 -7 -8 -4 -630 4 -634 4 -3 32 -2 63 0 l57 5 4 202 c5 224 15 268
70 308 43 30 136 31 175 2 46 -34 52 -69 52 -301 1 -140 5 -214 12 -218 6 -4
35 -4 65 0 l54 6 0 242 c0 235 -1 244 -24 294 -37 78 -87 107 -190 111 -57 1
-92 -2 -116 -13z"/>
<path d="M8780 4193 c-69 -25 -151 -113 -175 -188 -23 -74 -23 -152 -1 -227
21 -74 95 -156 166 -187 104 -45 257 -22 310 46 10 13 20 23 23 23 8 0 -2
-121 -13 -156 -34 -103 -197 -135 -333 -65 -47 24 -63 28 -69 19 -46 -71 -50
-79 -38 -93 7 -8 37 -27 69 -42 52 -26 65 -28 181 -28 119 0 128 1 185 30 66
33 116 90 136 153 13 43 24 708 12 715 -5 2 -36 2 -70 -1 l-63 -4 0 -36 0 -36
-32 32 c-18 17 -50 38 -70 46 -48 20 -159 19 -218 -1z m195 -104 c76 -21 135
-111 135 -206 0 -147 -145 -244 -276 -184 -102 46 -142 187 -85 299 24 47 50
70 98 88 47 16 76 17 128 3z"/>
<path d="M9573 4190 c-18 -10 -40 -31 -50 -47 l-18 -27 -5 39 -5 40 -60 -1
-60 -2 0 -317 0 -317 60 -1 60 -1 6 209 c6 230 13 263 65 304 24 19 38 22 85
19 l57 -4 15 55 c19 66 15 71 -63 71 -37 0 -65 -6 -87 -20z"/>
<path d="M9947 4196 c-140 -50 -214 -175 -205 -345 7 -137 69 -236 177 -284
71 -32 199 -35 274 -7 53 20 157 105 157 129 0 5 -21 23 -47 40 l-48 31 -31
-34 c-80 -87 -205 -98 -289 -25 -32 28 -44 54 -59 122 l-6 27 245 0 245 0 0
48 c0 142 -86 268 -205 301 -54 15 -162 13 -208 -3z m183 -112 c45 -18 77 -56
86 -103 l7 -31 -172 0 c-130 0 -171 3 -171 13 0 6 10 30 23 52 41 74 140 104
227 69z"/>
<path d="M10535 4193 c-69 -36 -105 -90 -105 -158 0 -85 45 -136 172 -194 91
-42 118 -68 118 -112 0 -89 -155 -108 -200 -25 -7 14 -17 26 -20 26 -4 0 -28
-12 -54 -26 -45 -25 -46 -26 -31 -54 35 -67 117 -110 209 -110 113 1 196 60
217 154 24 109 -28 186 -166 245 -101 42 -115 54 -115 101 0 47 18 63 71 63
30 0 47 -7 69 -28 l28 -27 46 27 c37 21 44 30 37 43 -15 28 -64 70 -94 81 -42
16 -147 13 -182 -6z"/>
<path d="M11003 4191 c-59 -27 -94 -84 -95 -153 -1 -97 35 -138 178 -203 94
-42 124 -78 105 -127 -16 -42 -53 -61 -109 -55 -38 4 -53 12 -79 42 l-32 37
-45 -27 c-25 -15 -46 -30 -46 -34 0 -24 57 -82 102 -105 155 -77 337 15 338
171 0 92 -39 139 -166 198 -120 57 -147 94 -105 146 28 35 96 32 129 -7 l24
-27 34 18 c54 29 59 40 33 76 -47 66 -177 90 -266 50z"/>
</g>
</svg>
