<?xml version="1.0" standalone="no"?>
<!DOCTYPE svg PUBLIC "-//W3C//DTD SVG 20010904//EN"
 "http://www.w3.org/TR/2001/REC-SVG-20010904/DTD/svg10.dtd">
<svg version="1.0" xmlns="http://www.w3.org/2000/svg"
 width="1402.000000pt" height="800.000000pt" viewBox="200 250 1000.000000 600.000000"
 preserveAspectRatio="xMidYMid meet">

<g transform="translate(0.000000,1122.000000) scale(0.100000,-0.100000)"
fill="#000000" stroke="none">
<path d="M7008 7232 l-48 -3 0 -180 0 -179 178 2 177 3 0 180 0 180 -130 0
c-71 0 -151 -1 -177 -3z"/>
<path d="M6110 6980 l0 -180 180 0 180 0 0 180 0 180 -180 0 -180 0 0 -180z"/>
<path d="M7820 6950 l0 -180 185 0 185 0 0 180 0 180 -185 0 -185 0 0 -180z"/>
<path d="M5347 6893 c-4 -3 -7 -84 -7 -180 l0 -173 180 0 180 0 0 180 0 180
-173 0 c-96 0 -177 -3 -180 -7z"/>
<path d="M8683 6843 c-23 -4 -23 -6 -23 -184 l0 -179 180 0 180 0 -2 183 -3
182 -155 1 c-85 1 -165 0 -177 -3z"/>
<path d="M4610 6335 l0 -185 178 2 177 3 3 183 2 182 -180 0 -180 0 0 -185z"/>
<path d="M9428 6462 l-78 -3 0 -179 0 -180 180 0 180 0 -2 182 -3 182 -100 1
c-55 0 -135 -1 -177 -3z"/>
<path d="M3967 5983 c-4 -3 -7 -84 -7 -180 l0 -173 180 0 180 0 0 180 0 180
-173 0 c-96 0 -177 -3 -180 -7z"/>
<path d="M9940 5740 l0 -180 183 2 182 3 0 175 0 175 -182 3 -183 2 0 -180z"/>
<path d="M6960 5488 l0 -183 180 3 180 3 0 179 0 180 -180 0 -180 0 0 -182z"/>
<path d="M6097 5544 c-4 -4 -7 -88 -7 -186 l0 -178 178 2 177 3 0 180 0 180
-171 3 c-93 1 -173 -1 -177 -4z"/>
<path d="M7820 5340 l0 -180 185 0 185 0 0 180 0 180 -185 0 -185 0 0 -180z"/>
<path d="M3472 5173 l3 -178 183 -3 182 -2 0 180 0 180 -185 0 -185 0 2 -177z"/>
<path d="M10390 5090 l0 -180 180 0 180 0 0 180 0 180 -180 0 -180 0 0 -180z"/>
<path d="M5320 4895 l0 -185 180 0 180 0 -2 183 -3 182 -177 3 -178 2 0 -185z"/>
<path d="M8590 4870 l0 -180 180 0 180 0 0 180 0 180 -180 0 -180 0 0 -180z"/>
<path d="M3120 4440 l0 -180 185 0 185 0 0 180 0 180 -185 0 -185 0 0 -180z"/>
<path d="M10687 4488 c-3 -40 -5 -120 -4 -178 l2 -105 183 -3 182 -2 0 180 0
180 -179 0 -179 0 -5 -72z"/>
<path d="M4860 4280 l0 -180 180 0 180 0 0 180 0 180 -180 0 -180 0 0 -180z"/>
<path d="M9038 4423 c-2 -5 -3 -84 -3 -178 l0 -170 183 -3 182 -2 0 180 0 180
-179 0 c-99 0 -181 -3 -183 -7z"/>
</g>
</svg>
